<svg viewBox="0 0 96 96" xmlns="http://www.w3.org/2000/svg" xmlns:xlink="http://www.w3.org/1999/xlink" id="Icons_NoSmoking1_M" overflow="hidden"><g id="Icons"><path d="M60.16 55.915 69 55.915 69 60 64.246 60 66.246 62 71 62 71 53.915 58.16 53.915 60.16 55.915Z" fill="#72D9FE"/><path d="M65 48 67 48C67.0228 45.7739 65.2367 43.9507 63.0106 43.9279 62.9794 43.9276 62.9482 43.9276 62.917 43.928L57 44C55.0823 43.9468 53.2702 43.1102 51.986 41.685L51.356 40.897 50.574 41.533C49.7285 42.2212 48.6722 42.5979 47.582 42.6 47.3061 42.5955 47.0311 42.5674 46.76 42.516L48.733 44.488C49.5571 44.3472 50.348 44.0553 51.066 43.627 52.6966 45.1097 54.8086 45.9526 57.012 46L62.929 45.928C64.0611 45.9163 64.9883 46.8246 65 47.9568 65.0002 47.9712 65.0002 47.9856 65 48Z" fill="#72D9FE"/><path d="M70.8 46.245C70.009 41.9858 66.287 38.9005 61.955 38.913 61.5052 38.9287 61.1277 38.5768 61.112 38.127 61.1113 38.108 61.1113 38.089 61.112 38.07L61.112 37.456C61.0998 33.5468 57.9568 30.3686 54.048 30.313 53.569 30.325 53.1646 29.9597 53.128 29.482 53.1473 27.2186 52.2592 25.0418 50.662 23.438 49.1837 21.9399 47.1667 21.0967 45.062 21.097 40.5269 21.1895 36.9214 24.9336 37 29.469 37.0037 31.1405 37.4966 32.7744 38.418 34.169L40.78 36.531C40.792 36.539 40.802 36.548 40.813 36.556L40.813 36.564 42.862 38.613C42.7868 38.2511 42.7483 37.8826 42.747 37.513 42.748 37.0977 42.7993 36.684 42.9 36.281L43.1 35.503 42.382 35.144C40.2796 34.0362 38.9739 31.8452 39 29.469 38.9228 26.0388 41.6332 23.1916 45.063 23.1 46.6358 23.1019 48.1422 23.7336 49.246 24.854 50.4668 26.0829 51.1443 27.7498 51.127 29.482 51.157 31.0603 52.4484 32.3223 54.027 32.316 56.8415 32.3558 59.1046 34.6443 59.113 37.459L59.113 38.073C59.0963 39.6265 60.3422 40.8993 61.8957 40.916 61.9158 40.9162 61.9359 40.9162 61.956 40.916 65.3004 40.8976 68.1848 43.2612 68.824 46.544L68.853 46.788C68.9516 47.6354 69.0007 48.4879 69 49.341L69 52 71 52 71 49.341C70.9999 48.409 70.9455 47.4777 70.837 46.552Z" fill="#72D9FE"/><path d="M55.761 60 35 60 35 55.915 51.676 55.915 49.676 53.915 25 53.915 25 62 57.761 62ZM33 60 27 60 27 55.915 33 55.915Z" fill="#72D9FE"/><path d="M48 10C27.0071 9.99393 9.98408 27.0071 9.978 48 9.97193 68.9929 26.9851 86.0159 47.978 86.022 68.9709 86.0281 85.9939 69.0149 86 48.022 86 48.0183 86 48.0147 86 48.011 86.0116 27.0297 69.0123 10.0116 48.031 10 48.0207 10 48.0103 9.99999 48 10ZM48 84.021C28.1266 84.0299 12.0088 67.9265 12 48.053 11.9959 38.836 15.5287 29.9689 21.87 23.28L72.733 74.143C66.0624 80.4886 57.2067 84.0254 48 84.021ZM74.146 72.729 23.284 21.866C37.7039 8.19533 60.4758 8.80271 74.1465 23.2226 87.3046 37.1019 87.3044 58.85 74.146 72.729Z" fill="#72D9FE"/></g></svg>