<svg width="1280" height="720" xmlns="http://www.w3.org/2000/svg" xmlns:xlink="http://www.w3.org/1999/xlink" overflow="hidden"><defs><clipPath id="clip0"><path d="M0 0 1280 0 1280 720 0 720Z" fill-rule="evenodd" clip-rule="evenodd"/></clipPath><clipPath id="clip1"><path d="M452 311 573 311 573 438 452 438Z" fill-rule="evenodd" clip-rule="evenodd"/></clipPath><clipPath id="clip2"><path d="M452 311 573 311 573 438 452 438Z" fill-rule="evenodd" clip-rule="evenodd"/></clipPath><clipPath id="clip3"><path d="M452 311 573 311 573 438 452 438Z" fill-rule="evenodd" clip-rule="evenodd"/></clipPath></defs><g clip-path="url(#clip0)"><rect x="0" y="0" width="1280" height="720" fill="#FFFFFF"/><g clip-path="url(#clip1)"><g clip-path="url(#clip2)"><g clip-path="url(#clip3)"><path d="M36.4034 38.1906C37.2025 38.2007 38.115 38.1994 39.0918 38.1906 39.3041 49.3193 48.4978 58.169 59.6265 57.9567 70.514 57.749 79.2676 48.9306 79.3949 38.0419 79.7617 36.7991 82.096 28.3102 79.2915 22.9421 77.486 19.1556 73.5977 16.809 69.4061 16.9766 67.3453 15.3456 58.7052 9.51993 46.556 15.2561 36.5987 19.9537 36.3101 30.255 36.3227 31.8016L35.1883 36.6479C35.0295 37.3256 35.4502 38.0038 36.1281 38.1625 36.2174 38.1834 36.3089 38.1947 36.4008 38.1957ZM59.2396 55.4583C49.6187 55.4447 41.7792 47.7318 41.6089 38.1125 46.3216 37.9171 51.8813 37.3058 55.3789 35.6534 59.9555 33.493 65.7396 28.6266 67.5596 27.046 69.3068 27.8514 70.8534 29.0343 72.0883 30.5096 73.1203 31.7711 74.0136 33.1398 74.7528 34.5921 75.3427 35.6446 76.0132 36.8344 76.8678 38.1541 76.6758 47.7566 68.844 55.4445 59.2396 55.4583ZM38.8133 32.2137C38.8386 32.1051 38.8496 31.9937 38.846 31.8822 38.8334 31.4713 38.6166 21.7838 47.6324 17.5274 50.563 16.079 53.7803 15.3039 57.049 15.2586 61.0966 15.2053 65.0301 16.5994 68.1406 19.1898 68.4274 19.4608 68.8238 19.5828 69.2133 19.5201 72.5341 19.222 75.6798 21.0584 77.053 24.0966 78.6261 27.1078 78.1723 31.6175 77.6202 34.5442 77.3833 34.1308 77.1614 33.7351 76.9484 33.3557 76.1273 31.7496 75.1341 30.2375 73.9865 28.8459 72.3252 26.7745 70.1022 25.2259 67.5835 24.3853 67.1813 24.2887 66.7575 24.3957 66.4492 24.6714 66.3786 24.7344 59.3669 30.9861 54.3088 33.3683 50.2037 35.3055 42.4155 35.637 38.0104 35.6647Z" fill="#72D9FE" transform="matrix(1 0 -0 1.04959 452 311)"/><path d="M96.4635 75.0263C90.678 70.5724 84.0503 67.337 76.9799 65.5152 75.3515 65.0274 73.7117 64.6064 72.1072 64.2636L71.4681 64.1262 70.9879 64.5711C65.8517 69.3229 62.3705 69.3229 60.5 69.3229 58.6295 69.3229 55.1193 69.3229 50.0083 64.6342L49.5306 64.1955 48.9004 64.3291C47.3564 64.6543 45.7254 65.0514 44.039 65.5114 37.0536 67.5586 30.4649 70.7726 24.5517 75.0175 21.8404 77.1417 20.2298 80.374 20.1667 83.8177L20.1667 103.354 22.6875 103.354 22.6875 83.8177C22.7431 81.1595 23.9861 78.6659 26.0755 77.0215 31.7345 72.9707 38.0357 69.9027 44.7145 67.9465 46.1136 67.5684 47.4875 67.2256 48.792 66.9382 53.6937 71.2476 57.4548 71.8438 60.5 71.8438 63.5452 71.8438 67.2861 71.24 72.2093 66.8664 73.5466 67.1689 74.9066 67.5256 76.2716 67.9352 83.0209 69.6659 89.3501 72.7447 94.8779 76.9863 96.9916 78.6312 98.2529 81.14 98.3125 83.8177L98.3125 103.354 100.833 103.354 100.833 83.8177C100.772 80.3793 99.1676 77.1509 96.4635 75.0263Z" fill="#72D9FE" transform="matrix(1 0 -0 1.04959 452 311)"/></g></g></g></g></svg>