<svg viewBox="0 0 96 96" xmlns="http://www.w3.org/2000/svg" xmlns:xlink="http://www.w3.org/1999/xlink" id="Icons_Smoking_M" overflow="hidden"><g id="Icons"><path d="M90.9 55.1C90.8724 54.8861 90.8336 54.6738 90.784 54.464 89.5506 47.8274 83.7503 43.0206 77 43.041 75.92 43.0656 75.0246 42.21 75 41.13 74.9993 41.1003 74.9993 41.0707 75 41.041L75 40.041C74.9903 34.609 71.0192 29.9962 65.649 29.179 65.474 29.149 65.299 29.118 65.124 29.098L65.124 29.098C64.7362 29.0548 64.3462 29.0344 63.956 29.037 62.8774 29.0379 62.0023 28.1642 62.0014 27.0856 62.0014 27.0694 62.0016 27.0532 62.002 27.037 62.1292 19.9996 56.539 14.1857 49.502 14.037 42.465 14.1857 36.8748 19.9996 37.002 27.037 36.9714 31.6199 39.3512 35.8819 43.269 38.26 42.2176 44.1784 46.163 49.8286 52.0814 50.88 52.5832 50.9692 53.0907 51.023 53.6 51.041 55.6474 51.0378 57.6481 50.4297 59.351 49.293 61.6225 51.6999 64.7905 53.0571 68.1 53.041L78.1 53.041C80.2853 53.0171 82.0761 54.7693 82.1 56.9545 82.1003 56.9834 82.1003 57.0122 82.1 57.041L82.1 64.541 84.1 64.541 84.1 57.041C84.135 53.7623 81.5054 51.076 78.2267 51.041 78.1845 51.0406 78.1422 51.0406 78.1 51.041L68.1 51.041C65.2879 51.052 62.6027 49.8719 60.709 47.793 61.0166 47.4188 61.2977 47.0235 61.55 46.61 61.8333 46.1359 61.6786 45.5218 61.2045 45.2385 60.7304 44.9552 60.1163 45.1099 59.833 45.584 59.271 46.5295 58.5233 47.3514 57.635 48 56.3994 48.6819 55.0113 49.04 53.6 49.041 48.843 48.9807 45.0356 45.0755 45.0959 40.3185 45.0967 40.2593 45.098 40.2001 45.1 40.141 45.1014 39.4137 45.192 38.6892 45.37 37.984L45.57 37.206 44.853 36.847C41.2162 34.9359 38.956 31.1491 39 27.041 38.872 21.1078 43.5673 16.1889 49.5 16.041 55.4327 16.1889 60.128 21.1078 60 27.041 59.999 27.9444 60.305 28.8214 60.868 29.528 60.4447 29.6634 60.0306 29.8258 59.628 30.014 59.129 30.2512 58.9168 30.848 59.154 31.347 59.3912 31.846 59.988 32.0582 60.487 31.821 61.6061 31.2901 62.8326 31.0246 64.071 31.045 64.243 31.045 64.412 31.06 64.583 31.071 64.9243 31.0929 65.264 31.136 65.6 31.2 65.608 31.2005 65.616 31.2005 65.624 31.2 69.8906 31.9868 72.9906 35.7025 73 40.041L73 41.041C72.9761 43.2263 74.7283 45.0171 76.9135 45.041 76.9424 45.0413 76.9712 45.0413 77 45.041 82.7544 45.0221 87.709 49.0979 88.8 54.748 88.8562 55.0121 88.8976 55.2792 88.924 55.548 88.956 55.872 88.997 56.585 88.997 57.036L89.097 64.549 91.097 64.523 91 57C91 56.512 90.955 55.553 90.9 55.1Z" fill="#72D9FE"/><path d="M5 80.541 91 80.541 91 68.541 5 68.541ZM84 70.541 89 70.541 89 78.541 84 78.541ZM24 70.541 82 70.541 82 78.541 24 78.541ZM7 70.541 22 70.541 22 78.541 7 78.541Z" fill="#72D9FE"/></g></svg>